<?xml version="1.0" encoding="UTF-8" standalone="no"?>
<!DOCTYPE svg PUBLIC "-//W3C//DTD SVG 1.1//EN" "http://www.w3.org/Graphics/SVG/1.1/DTD/svg11.dtd">
<svg width="100%" height="100%" viewBox="0 0 3508 2245" version="1.1" xmlns="http://www.w3.org/2000/svg" xmlns:xlink="http://www.w3.org/1999/xlink" xml:space="preserve" xmlns:serif="http://www.serif.com/" style="fill-rule:evenodd;clip-rule:evenodd;stroke-linejoin:round;stroke-miterlimit:2;">
    <g id="original" transform="matrix(0.999908,0,0,0.90506,0,0)">
        <rect x="0" y="0" width="3507.87" height="2480.32" style="fill:none;"/>
        <g id="SA" transform="matrix(0.82674,0,0,0.913381,-1115.35,-1813.85)">
            <path d="M1944.19,3738.72L1941,3737.13L1915.5,3732.35L1853.34,3721.19L1894.78,3733.94L1867.68,3729.16L1866.09,3733.94L1856.53,3733.94L1902.75,3745.1L1905.93,3751.47L1968.1,3764.22L1941,3762.63L1941,3765.82L1917.09,3762.63L1920.28,3765.82L2022.29,3776.97L2055.76,3781.76L2057.35,3786.54L2031.85,3788.13L1894.78,3775.38L1928.25,3789.73L1942.59,3792.91L2006.35,3805.66L2022.29,3805.66L2022.29,3808.85L2054.16,3812.04L2068.51,3823.2L2116.33,3823.2L2181.67,3815.23L2199.21,3813.63L2235.87,3812.04L2234.27,3812.04L2207.18,3816.82L2199.21,3820.01L2167.33,3827.98L2138.64,3827.98C2130.67,3831.17 2124.3,3831.17 2122.7,3831.17C2117.92,3831.17 2113.14,3831.17 2106.76,3829.57L2082.86,3829.57L2015.91,3824.79L2012.72,3826.39L2027.07,3829.57L2039.82,3831.17L2074.89,3835.95L2130.67,3839.14L2070.1,3839.14L2020.69,3840.73L2089.23,3845.51L2103.57,3845.51L2160.95,3842.32L2199.21,3839.14L2202.39,3837.54L2207.18,3837.54L2227.9,3831.17L2237.46,3832.76L2235.87,3829.57L2248.62,3827.98L2357,3789.73L2363.38,3788.13L2382.5,3773.79L2380.91,3770.6L2433.51,3738.72L2433.51,3735.53L2428.72,3737.13L2431.91,3729.16L2465.38,3700.47L2476.54,3687.72L2468.57,3682.94L2481.32,3663.81L2505.23,3625.56L2505.23,3576.15L2503.64,3563.4L2487.7,3507.61L2482.91,3494.86L2447.85,3426.32L2435.1,3397.63L2376.13,3290.85L2345.84,3243.03L2269.34,3107.55L2242.24,3045.39L2218.33,2986.42L2219.93,2948.16L2215.15,2946.57L2243.84,2914.69C2262.96,2917.88 2261.37,2919.47 2272.53,2914.69L2291.65,2908.32L2376.13,2908.32L2425.54,2921.07L2455.82,2940.19L2460.6,2940.19L2486.1,2962.51L2516.39,2992.79L2538.7,3013.51L2546.67,3027.86L2549.86,3024.67L2551.45,3027.86L2557.83,3035.83L2557.83,3037.42L2572.17,3074.08L2580.14,3080.45L2568.98,3051.76L2565.8,3039.01L2589.7,3080.45L2594.49,3080.45L2581.74,3045.39L2588.11,3042.2L2600.86,3053.36L2604.05,3061.33L2604.05,3053.36C2610.43,3066.11 2610.43,3062.92 2618.39,3090.02C2619.99,3093.2 2621.58,3097.99 2624.77,3104.36C2621.58,3093.2 2619.99,3085.24 2619.99,3080.45C2618.39,3074.08 2618.39,3070.89 2618.39,3069.3L2608.83,3029.45L2612.02,3026.26L2632.74,3069.3L2639.11,3080.45L2640.71,3086.83L2640.71,3075.67L2647.08,3054.95L2642.3,3043.8L2645.49,3035.83L2650.27,3039.01L2658.24,3039.01L2653.46,3019.89L2629.55,2940.19L2634.33,2937.01L2650.27,2988.01L2659.84,3024.67L2666.21,3029.45L2656.65,2960.91L2647.08,2935.41L2640.71,2935.41L2634.33,2925.85L2613.61,2893.97L2576.95,2842.97L2613.61,2882.82L2621.58,2886L2623.18,2890.78L2626.36,2887.6L2607.24,2862.1L2612.02,2862.1L2602.45,2850.94L2570.58,2820.65L2535.51,2799.93L2517.98,2788.78L2538.7,2793.56L2548.26,2795.15L2599.27,2830.22L2594.49,2822.25L2588.11,2820.65L2586.52,2817.47L2543.48,2791.96L2502.04,2777.62L2428.72,2771.24L2408,2776.03L2438.29,2774.43C2435.1,2780.81 2433.51,2780.81 2431.91,2780.81C2425.54,2780.81 2415.97,2782.4 2406.41,2785.59L2400.03,2785.59L2385.69,2788.78L2382.5,2788.78L2374.53,2790.37L2361.78,2793.56L2355.41,2796.75L2357,2801.53L2353.81,2804.72L2360.19,2804.72L2352.22,2811.09L2312.37,2823.84C2293.24,2831.81 2278.9,2841.37 2269.34,2855.72L2272.53,2857.31L2270.93,2863.69L2248.62,2890.78L2203.99,2941.79L2199.21,2882.82L2210.36,2830.22L2203.99,2841.37L2194.43,2849.34L2191.24,2849.34L2186.46,2858.91L2175.3,2870.06L2162.55,2905.13L2141.83,2925.85L2138.64,2980.04C2138.64,2981.64 2140.23,2986.42 2141.83,2994.39C2141.83,2997.57 2141.83,3002.36 2143.42,3007.14L2122.7,2949.76L2121.11,2994.39L2117.92,2994.39L2122.7,3031.05L2106.76,3018.29L2105.17,3007.14L2098.79,3002.36L2094.01,2994.39L2103.57,3056.55L2116.33,3099.58L2137.05,3148.99L2173.7,3227.09L2210.36,3295.63L2226.3,3324.32L2253.4,3372.13L2286.87,3427.92L2306,3464.58L2329.9,3507.61L2347.44,3542.68L2377.72,3608.03L2384.1,3622.37L2379.31,3622.37L2380.91,3627.15L2384.1,3630.34L2387.28,3641.5L2385.69,3639.9L2387.28,3651.06L2390.47,3649.47L2393.66,3663.81L2396.85,3665.4L2401.63,3694.09L2398.44,3698.88L2401.63,3700.47L2390.47,3703.66L2388.88,3698.88L2368.16,3631.93L2374.53,3630.34L2364.97,3615.99L2342.66,3571.37L2344.25,3569.77L2341.06,3564.99L2339.47,3553.83L2328.31,3528.33L2310.78,3501.24L2270.93,3434.29L2251.8,3392.85L2213.55,3324.32L2172.11,3252.59L2164.14,3243.03L2208.77,3330.69L2321.93,3531.52L2371.35,3635.12L2388.88,3703.66L2376.13,3705.25L2323.53,3714.81L2243.84,3718L2245.43,3721.19L2183.27,3724.38L2168.92,3724.38L2047.79,3714.81L2047.79,3718L2030.26,3718L1948.97,3702.06L1950.56,3705.25L1956.94,3705.25C1971.28,3711.63 1976.07,3713.22 1992,3714.81L1992,3718L2001.57,3719.6L1990.41,3721.19L1988.82,3716.41L1953.75,3714.81L1947.38,3714.81L1937.81,3710.03L1936.22,3711.63L1912.31,3706.85L1912.31,3710.03L1907.53,3708.44L1896.37,3711.63C1875.65,3702.06 1869.28,3700.47 1897.97,3713.22L1905.93,3718L2001.57,3738.72L1953.75,3740.32L1944.19,3738.72ZM1910.72,3671.78L1921.87,3674.97L2022.29,3695.69L2063.73,3703.66L2092.42,3703.66L2132.26,3706.85L2165.74,3706.85L2148.2,3703.66L2145.01,3702.06L2071.7,3695.69L1966.5,3678.16L1960.13,3681.34L1931.44,3671.78L1931.44,3673.37L1921.87,3671.78L1910.72,3671.78ZM2243.84,3327.5L2248.62,3329.1L2251.8,3337.07L2258.18,3343.44L2270.93,3373.73L2301.21,3424.73L2315.56,3456.61L2320.34,3459.8L2315.56,3456.61L2336.28,3491.67L2339.47,3491.67L2341.06,3498.05L2349.03,3518.77L2350.62,3517.17L2376.13,3566.58L2393.66,3611.21L2401.63,3625.56L2408,3619.18L2419.16,3652.65L2420.75,3692.5C2411.19,3679.75 2411.19,3674.97 2409.6,3659.03L2369.75,3564.99L2251.8,3351.41L2243.84,3327.5ZM2328.31,3337.07L2380.91,3432.7L2428.72,3518.77L2452.63,3592.09L2460.6,3639.9L2465.38,3639.9L2463.79,3643.09C2462.2,3659.03 2460.6,3663.81 2451.04,3674.97L2452.63,3643.09L2435.1,3577.74L2398.44,3493.27L2368.16,3443.86L2345.84,3402.42L2345.84,3396.04L2352.22,3394.45L2321.93,3341.85L2328.31,3337.07ZM2408,3383.29L2408,3378.51C2408,3378.51 2408,3376.91 2409.6,3376.91L2412.78,3376.91L2419.16,3391.26L2438.29,3419.95L2459.01,3462.98L2476.54,3496.45L2489.29,3539.49L2494.07,3566.58C2497.26,3579.34 2498.85,3584.12 2498.85,3593.68L2498.85,3606.43L2495.67,3601.65L2497.26,3600.06L2497.26,3584.12L2476.54,3512.39L2444.66,3448.64L2419.16,3402.42L2408,3383.29ZM2306,3418.35L2321.93,3442.26L2321.93,3443.86L2333.09,3458.2L2337.87,3470.95L2342.66,3474.14L2353.81,3496.45L2384.1,3553.83L2390.47,3568.18L2382.5,3564.99L2371.35,3544.27L2350.62,3501.24L2306,3418.35ZM2325.12,3432.7L2364.97,3501.24L2385.69,3537.89L2371.35,3523.55L2368.16,3513.99L2361.78,3507.61L2360.19,3501.24L2336.28,3456.61L2325.12,3432.7ZM2382.5,3491.67L2411.19,3547.46L2441.47,3635.12L2438.29,3684.53L2439.88,3674.97L2431.91,3617.59L2412.78,3561.8L2382.5,3491.67Z" style="fill-rule:nonzero;"/>
            <path d="M3195.37,2744.15L3190.59,2748.93L3187.41,2755.3L3184.22,2753.71L3179.44,2755.3L3171.47,2766.46L3163.5,2768.06L3142.78,2782.4L3106.12,2811.09L3075.83,2833.41L3056.71,2854.12L3039.18,2886L3047.14,2887.6L3047.14,2892.38L3053.52,2897.16L3056.71,2903.53L3048.74,2914.69L3007.3,2968.88L3000.92,2978.45L2967.45,3043.8L2906.88,3129.86L2876.6,3180.87L2879.79,3182.46L2849.51,3228.68L2860.66,3214.34L2862.26,3215.93L2875.01,3209.56L2902.1,3176.09L2908.48,3168.12L2908.48,3163.34L2911.67,3163.34L2943.54,3121.89L2999.33,3053.36L3000.92,3056.55L3008.89,3046.98L3008.89,3050.17L2992.95,3074.08L2953.11,3133.05L2914.85,3188.84C2913.26,3203.18 2911.67,3206.37 2903.7,3217.53C2897.32,3228.68 2890.95,3239.84 2882.98,3251L2809.66,3378.51L2809.66,3362.57C2803.28,3375.32 2800.1,3380.1 2788.94,3388.07L2782.56,3396.04L2720.4,3478.92L2696.49,3526.74L2677.37,3561.8L2639.11,3630.34L2605.64,3703.66L2584.92,3749.88L2612.02,3703.66L2591.3,3762.63C2596.08,3770.6 2597.67,3780.16 2597.67,3784.94C2597.67,3786.54 2597.67,3789.73 2600.86,3794.51L2589.7,3808.85L2599.27,3820.01L2613.61,3821.6L2640.71,3810.45L2702.87,3775.38L2733.15,3751.47L2967.45,3568.18L2981.8,3557.02L3133.21,3439.08L3136.4,3440.67L3142.78,3470.95L3147.56,3469.36L3160.31,3534.71L3166.68,3529.93L3166.68,3480.51L3173.06,3478.92L3171.47,3466.17L3174.65,3464.58L3181.03,3485.3L3177.84,3467.76L3181.03,3461.39L3185.81,3482.11L3187.41,3482.11L3193.78,3513.99L3193.78,3518.77L3196.97,3517.17L3203.34,3537.89L3206.53,3536.3L3212.91,3564.99L3211.31,3571.37L3203.34,3569.77L3198.56,3552.24L3193.78,3552.24L3189,3544.27L3196.97,3579.34L3193.78,3579.34L3192.19,3598.46L3198.56,3716.41L3190.59,3740.32L3212.91,3764.22L3255.94,3788.13L3273.47,3802.48L3281.44,3805.66L3289.41,3818.41L3306.95,3832.76L3311.73,3834.35L3318.1,3840.73L3321.29,3842.32L3326.07,3848.7L3343.6,3855.07L3342.01,3858.26L3354.76,3850.29L3362.73,3834.35L3393.01,3759.44L3432.86,3670.19L3461.55,3611.21L3483.86,3564.99L3472.71,3582.52L3464.74,3596.87L3436.05,3639.9L3450.39,3604.84C3453.58,3600.06 3458.36,3592.09 3464.74,3582.52C3467.93,3576.15 3471.11,3571.37 3472.71,3568.18L3518.93,3480.51L3510.96,3493.27L3501.4,3502.83L3442.42,3588.9L3458.36,3557.02L3461.55,3539.49L3471.11,3518.77L3475.89,3507.61L3518.93,3439.08L3469.52,3501.24L3437.64,3545.86C3431.27,3553.83 3424.89,3560.21 3421.7,3560.21C3420.11,3560.21 3418.52,3560.21 3415.33,3558.62L3418.52,3537.89L3429.67,3531.52L3436.05,3513.99L3444.02,3509.2L3444.02,3504.42C3444.02,3501.24 3445.61,3496.45 3447.2,3494.86L3456.77,3480.51L3455.18,3472.55L3471.11,3453.42L3474.3,3443.86L3501.4,3400.82L3447.2,3464.58L3410.55,3521.96L3404.17,3525.14C3399.39,3534.71 3397.8,3537.89 3391.42,3544.27L3370.7,3547.46C3364.32,3537.89 3362.73,3534.71 3362.73,3523.55L3369.11,3512.39L3361.14,3517.17L3354.76,3513.99L3359.54,3502.83L3410.55,3419.95L3375.48,3472.55L3365.92,3472.55L3362.73,3480.51L3353.17,3483.7L3345.2,3483.7L3338.82,3478.92L3335.64,3469.36L3329.26,3467.76L3324.48,3423.14L3297.38,3262.16L3289.41,3199.99L3289.41,3168.12L3281.44,3168.12L3278.26,3131.46L3251.16,2906.72L3240,2804.72L3225.66,2798.34L3225.66,2776.03L3228.85,2768.06L3211.31,2750.52L3195.37,2744.15ZM3114.09,3010.32L3120.46,3102.77L3126.84,3188.84L3133.21,3220.72L3136.4,3271.72C3141.18,3279.69 3142.78,3286.06 3142.78,3290.85L3137.99,3319.53L3141.18,3375.32L3141.18,3397.63L3088.59,3426.32L3085.4,3421.54L3090.18,3411.98L3090.18,3402.42L3106.12,3386.48L3117.28,3378.51L3066.27,3408.79L3053.52,3415.17L3039.18,3424.73L2992.95,3456.61L2980.2,3467.76L2903.7,3523.55L2894.13,3504.42L2914.85,3478.92L2763.44,3592.09L2758.65,3590.49L2763.44,3580.93L2758.65,3579.34L2766.62,3563.4L2760.25,3561.8L2788.94,3513.99L2808.06,3488.49L2992.95,3172.9L3114.09,3010.32ZM3165.09,3294.03L3166.68,3305.19L3166.68,3311.57L3169.87,3319.53L3166.68,3325.91L3173.06,3325.91L3176.25,3340.26L3185.81,3381.7L3171.47,3391.26L3166.68,3389.66L3152.34,3396.04L3145.96,3353.01L3160.31,3325.91L3155.53,3313.16L3165.09,3294.03ZM3219.28,3498.05L3222.47,3502.83L3225.66,3499.64L3230.44,3521.96L3232.03,3517.17L3241.6,3568.18L3246.38,3577.74L3251.16,3577.74L3254.35,3587.3L3251.16,3593.68L3243.19,3588.9L3227.25,3561.8L3219.28,3498.05Z" style="fill-rule:nonzero;"/>
            <g transform="matrix(1.20968,0,0,1.20968,1394.52,1984.19)">
                <path d="M2653.39,632.131C2642.33,634.716 2514.58,665.071 2458.2,680.054C2402.84,694.768 2346.12,712.477 2295.33,728.921C2254.38,742.885 2214.57,757.58 2176.7,773.533C2135.88,790.728 2097.3,809.339 2061.87,829.823C2029.39,848.474 1991.26,870.694 1949.19,899.992C1916.41,922.815 1881.23,949.862 1844.65,983.092C1806.5,1017.04 1766.77,1057.79 1727.01,1106.34C1693.76,1146.94 1607.51,1259.13 1576.05,1312.09C1569.11,1324.28 1648.03,1408 1654.98,1395.81C1683.23,1344.11 1755.94,1206.47 1786.76,1166.85C1823.68,1119.39 1860.88,1077.74 1896.98,1044.69C1932.22,1013.09 1966.01,987.277 1997.63,965.741C2038.76,937.73 2076.19,916.881 2107.96,899.229C2142.18,880.335 2179.39,863.374 2218.66,847.661C2255.8,832.799 2294.76,819.092 2334.85,806.161C2394.45,785.803 2460.59,765.622 2525.24,747.418C2569.56,734.937 2713.99,699.388 2742.95,693.229C2790.78,683.058 2840.08,676.626 2867.58,673.763C2876.18,672.867 2939.39,663.194 2939.39,663.194L2918.78,665.135L2865.82,663.734L2853.99,658.964L2855.78,654.186L2880.82,649.265L2858.5,649.225L2891.82,643.318L2958.58,630.899L3022.13,622.838L2981.38,620.63L2951.66,620.124L2919.31,616.617L2945.55,614.18L2930.55,611.022L2933.43,608.308L2953.4,605.673L3010.05,596.851L3008.66,595.813L2981.23,599.318L2977.46,598.802L2952.97,602.024L2940.69,603.387L2863.37,614.878L2858.69,609.002L2822.63,612.239L2810.28,606.776L2836.04,597.303L2803.73,603.19L2797.6,601.883C2797.6,601.883 2684.07,624.97 2653.39,632.131Z"/>
            </g>
        </g>
        <g id="st" transform="matrix(1.55976,0,0,1.86079,-815.058,-1601.22)">
            <g transform="matrix(0.641183,0,0,0.593779,0,0)">
                <path d="M3068.39,2660.72L3072.1,2666.57L3086.65,2682.45L3072.1,2665.25L3068.39,2660.72L3046.97,2626.9L3033.75,2591.19L3024.49,2573.99L3015.23,2535.64L3016.55,2525.06L3020.52,2529.03L3025.81,2514.48C3035.07,2510.51 3037.72,2507.87 3043.01,2503.9L3052.26,2497.29L3064.17,2502.58L3061.52,2525.06L3062.84,2519.77L3066.81,2519.77L3066.81,2527.7L3065.49,2539.61C3065.49,2542.25 3066.81,2546.22 3068.13,2552.83L3072.1,2551.51L3072.1,2555.48L3074.75,2559.45L3080.04,2556.8L3084.01,2562.09L3089.3,2531.67L3091.94,2534.32L3089.3,2550.19L3091.94,2550.19L3091.94,2544.9L3094.59,2544.9L3095.91,2551.51L3097.23,2544.9L3099.88,2546.22L3099.88,2556.8C3099.88,2560.77 3099.88,2563.41 3101.2,2568.7L3109.13,2556.8L3115.75,2556.8L3121.04,2554.16L3117.07,2567.38L3123.68,2558.12L3150.13,2570.03L3152.78,2575.32L3159.39,2579.28L3159.39,2587.22L3162.04,2581.93L3169.97,2593.83L3177.91,2600.45L3180.55,2617.64L3185.84,2614.99L3188.49,2616.32L3191.13,2637.48L3196.42,2589.87L3204.36,2568.7L3210.97,2584.58L3224.2,2530.35L3236.1,2457.61L3238.74,2416.61L3237.42,2415.29L3230.81,2413.96L3233.45,2417.93L3229.49,2423.22L3226.84,2421.9L3229.49,2407.35L3236.1,2408.67L3233.45,2396.77L3237.42,2392.8L3236.1,2370.32L3228.16,2382.22L3221.55,2382.22L3218.91,2387.51L3212.29,2391.48L3210.97,2394.12L3207,2396.77L3207,2376.93L3204.36,2395.45L3200.39,2392.8L3196.42,2398.09L3191.13,2402.06L3188.49,2402.06L3177.91,2406.03L3171.3,2403.38L3168.65,2408.67L3160.71,2410L3159.39,2415.29L3156.75,2417.93L3151.46,2415.29L3148.81,2421.9L3127.65,2440.41L3119.71,2445.71L3110.46,2447.03L3109.13,2443.06L3105.17,2444.38L3098.55,2447.03L3101.2,2451L3098.55,2456.29L3070.78,2466.87L3062.84,2478.77L3020.52,2505.22L3029.78,2488.03L3061.52,2458.93L3060.2,2449.67L3057.55,2447.03L3061.52,2444.38L3065.49,2445.71L3068.13,2440.41L3066.81,2436.45L3061.52,2437.77L3062.84,2441.74L3056.23,2444.38L3033.75,2435.12L2982.17,2465.54L2959.68,2477.45L2923.97,2509.19L2917.36,2522.41L2916.04,2522.41L2910.75,2531.67L2908.1,2531.67L2906.78,2534.32L2904.14,2534.32L2904.14,2529.03C2892.23,2531.67 2888.26,2532.99 2879.01,2540.93L2871.07,2552.83L2871.07,2546.22C2859.17,2560.77 2851.23,2576.64 2851.23,2593.83L2851.23,2628.22L2853.88,2641.45L2857.85,2640.12L2860.49,2644.09L2881.65,2698.32L2889.59,2712.86L2934.55,2764.44L2935.88,2753.86L2942.49,2745.93L3003.33,2810.73L2994.07,2792.22L2998.04,2785.61L3005.97,2782.96L3045.65,2823.96L3080.04,2862.31L3099.88,2899.35L3103.84,2901.99L3102.52,2907.28L3054.91,2917.86L3040.36,2917.86L3036.39,2924.47L3023.17,2925.8L2963.65,2933.73L2775.85,2944.31L2738.82,2952.25L2713.69,2957.54L2763.94,2954.89C2769.23,2957.54 2771.88,2958.86 2774.52,2958.86L2783.78,2958.86L2797.01,2962.83L2806.27,2961.51L2832.72,2962.83L2836.68,2961.51L2852.56,2965.47L2888.26,2962.83L2904.14,2962.83L2978.2,2964.15L2999.36,2964.15L3000.68,2966.8L3009.94,2965.47L3017.88,2968.12C3029.78,2964.15 3032.43,2964.15 3045.65,2964.15L3064.17,2961.51L3072.1,2960.18L3086.65,2958.86L3093.26,2957.54L3130.3,2949.6L3172.62,2932.41L3183.2,2921.83L3181.88,2920.51L3193.78,2912.57L3196.42,2911.25C3199.07,2904.64 3200.39,2900.67 3201.71,2898.02C3207,2887.44 3209.65,2878.18 3209.65,2872.89C3209.65,2863.64 3203.04,2843.8 3195.1,2833.22L3171.3,2798.83L3136.91,2756.51L3111.78,2720.8L3117.07,2726.09L3130.3,2743.28L3131.62,2743.28L3135.59,2745.93L3136.91,2749.9L3150.13,2757.83L3094.59,2690.38L3089.3,2691.7L3054.91,2648.06L3040.36,2632.19L3020.52,2589.87L3009.94,2556.8L3008.62,2542.25L3009.94,2536.96L3013.91,2559.45L3024.49,2589.87L3048.3,2636.16L3068.39,2660.72ZM3087.97,2849.09L3089.3,2855.7L3097.23,2859.67L3094.59,2866.28L3102.52,2864.96C3110.46,2872.89 3111.78,2878.18 3111.78,2884.8C3111.78,2887.44 3111.78,2892.73 3110.46,2898.02C3107.81,2890.09 3106.49,2888.76 3099.88,2882.15C3098.55,2880.83 3095.91,2878.18 3091.94,2874.22L3091.94,2867.6L3094.59,2868.93L3093.26,2859.67L3089.3,2863.64L3086.65,2857.02L3082.68,2857.02L3082.68,2850.41L3087.97,2849.09Z" style="fill-rule:nonzero;"/>
            </g>
            <g transform="matrix(0.641183,0,0,0.593779,546.63,859.684)">
                <path d="M2847.79,1048.15L2854.4,1048.15L2939.04,1041.53L2972.11,1038.89L2953.52,1039.66L2904.66,1033.6L2896.72,1025.66L2894.08,1016.4L2913.91,1015.08L2974.75,1009.79L3054.11,1008.47L3085.85,1008.47L2991.95,1000.53L2958.88,992.599L2972.11,993.921L2968.23,992.988L2966.82,991.276L3019.72,987.309L3060.72,988.631L3063.37,988.631L3062.04,985.986L3050.14,985.986L3038.24,984.663L3014.43,984.663L3001.2,983.341L2900.69,980.696L2888.79,980.696L2887.46,976.728L2846.46,974.083L2838.53,968.793L2863.66,966.147L2839.85,964.825L2843.82,958.212L2842.5,955.567L2850.43,943.664L2887.46,876.213L2905.98,840.504L2950.95,749.247L2948.3,745.279L2949.62,733.376L2929.79,733.376L2923.17,730.731C2919.2,736.021 2900.69,738.666 2888.79,746.601L2858.37,773.053L2851.76,770.408L2845.14,782.311L2839.85,780.988L2837.21,782.311L2817.37,773.053L2809.43,773.053L2800.17,771.73L2792.24,777.02L2764.47,820.665L2748.59,859.02L2722.14,923.825L2698.34,976.728L2645.43,967.47L2625.6,964.825L2572.69,954.244L2570.05,954.244L2564.76,955.567L2551.53,967.47L2548.89,974.083L2515.82,992.599C2502.6,999.212 2490.69,1012.44 2490.69,1012.44L2448.37,1032.28L2439.11,1042.86L2417.95,1044.18L2416.63,1049.47L2421.92,1049.47L2425.89,1054.76L2424.57,1060.05L2425.89,1066.66L2423.24,1071.95L2427.21,1077.24L2443.08,1078.57L2473.5,1078.57L2514.5,1069.31L2534.34,1069.31L2535.66,1065.34L2570.05,1065.34L2581.95,1064.02L2611.05,1062.69L2608.4,1071.95L2611.05,1070.63L2611.05,1067.99L2613.69,1069.31L2618.98,1062.69L2625.6,1062.69L2616.34,1083.86L2637.5,1086.5L2632.21,1115.6L2630.89,1115.6L2603.11,1183.05C2601.79,1185.69 2600.47,1189.66 2599.14,1193.63L2592.53,1209.5L2588.56,1220.08L2574.02,1255.79L2570.05,1271.66L2554.18,1320.6L2535.66,1374.82L2518.47,1427.72L2511.86,1456.82L2517.14,1451.53L2538.31,1394.66L2548.89,1384.08L2554.18,1353.66L2570.05,1313.98L2580.63,1275.63L2584.6,1269.02L2584.6,1261.08L2591.21,1255.79L2595.18,1242.56L2607.08,1209.5C2607.08,1209.5 2608.4,1206.86 2609.72,1204.21C2611.05,1201.56 2612.37,1196.27 2613.69,1190.98L2617.66,1179.08L2633.53,1138.08L2641.47,1116.92L2644.11,1116.92L2662.63,1071.95L2671.89,1058.73L2697.01,1057.4L2716.85,1056.08L2720.82,1058.73L2722.14,1056.08L2724.79,1056.08L2715.53,1093.11L2699.66,1124.86L2694.37,1140.73L2687.76,1148.66L2689.08,1146.02L2697.01,1119.57C2703.63,1106.34 2714.21,1082.53 2716.85,1073.28L2719.5,1061.37C2708.92,1078.57 2707.6,1082.53 2704.95,1097.08L2699.66,1099.73L2699.66,1110.31L2690.4,1120.89L2657.34,1204.21L2624.27,1292.82C2615.01,1319.27 2613.69,1321.92 2599.14,1366.88L2592.53,1388.05L2589.89,1389.37L2589.89,1399.95L2579.31,1438.3L2566.08,1471.37L2546.24,1501.79L2536.98,1513.69L2536.98,1522.95L2546.24,1526.92L2548.89,1530.88L2544.92,1536.17L2542.27,1546.75L2552.85,1569.24L2555.5,1569.24L2563.43,1583.79L2574.02,1587.75L2570.05,1598.33L2575.34,1602.3L2587.24,1589.08L2588.56,1593.04L2603.11,1571.88L2673.21,1497.82L2757.85,1411.85L2862.34,1320.6L2861.01,1307.37L2874.24,1292.82L2891.43,1276.95L2841.17,1310.02L2820.01,1311.34L2821.34,1291.5C2814.72,1298.11 2812.08,1299.43 2804.14,1300.76L2794.88,1304.73L2781.66,1286.21L2788.27,1278.27L2786.95,1275.63L2734.05,1317.95L2711.56,1323.24L2707.6,1317.95L2706.27,1320.6L2693.05,1331.18L2693.05,1325.89L2689.08,1327.21L2686.43,1325.89L2695.69,1300.76L2712.89,1257.11L2719.5,1233.31L2771.08,1106.34L2794.88,1058.73L2800.17,1052.11L2812.08,1052.11L2826.63,1050.79L2847.79,1048.15ZM2669.24,1127.5L2666.6,1134.11L2665.27,1134.11L2659.98,1146.02L2629.56,1220.08L2621.63,1242.56L2616.34,1255.79L2616.34,1269.02L2599.14,1308.69L2585.92,1352.34L2577.98,1372.17L2576.66,1390.69L2597.82,1327.21L2608.4,1302.08L2616.34,1283.56L2621.63,1263.73L2634.85,1239.92L2648.08,1198.92L2649.4,1189.66L2654.69,1181.73L2658.66,1161.89L2662.63,1159.24L2670.56,1138.08L2669.24,1127.5ZM2775.71,932.422L2773.72,930.438L2776.37,931.761L2775.71,932.422L2780.34,937.051L2764.47,974.083L2736.69,975.405L2727.43,974.083L2730.08,963.502L2735.37,958.212L2738.01,952.922L2743.3,950.277L2764.47,941.019L2771.08,942.341L2771.08,938.374L2773.72,938.374L2773.72,934.406L2775.71,932.422Z" style="fill-rule:nonzero;"/>
            </g>
        </g>
        <g id="ignite">
        </g>
        <g id="NJUPT2" transform="matrix(1.15942,0,0,1.28092,1275.31,344.32)">
            <g transform="matrix(4.16667,0,0,4.16667,-1274.75,-718.174)">
                <path d="M402.564,267.848C402.527,267.706 402.586,267.537 402.739,267.335C406.053,262.957 407.833,260.763 411.556,256.428L411.789,256.276C421.566,257.024 431.021,260.62 440.443,263.096C437.416,252.896 436.362,249.422 432.641,237.317C432.572,237.093 432.425,237.086 432.194,237.299C429.802,239.239 429.777,239.249 427.908,240.818C427.705,241.01 427.577,241.012 427.523,240.825C427.344,240.194 427.253,239.881 427.075,239.262C427.026,239.093 427.103,238.911 427.305,238.717C432.435,233.765 435.017,231.404 440.429,226.729C440.64,226.547 440.771,226.544 440.82,226.726C440.998,227.39 441.089,227.724 441.268,228.397C441.322,228.598 441.243,228.791 441.033,228.971C439.126,230.817 439.231,230.649 436.891,233.024C436.631,233.257 436.535,233.488 436.598,233.717C441.014,249.591 443.329,258.383 446.702,270.445C446.755,270.633 446.661,270.82 446.422,271.004C445.959,271.361 445.731,271.54 445.268,271.901C445.163,271.96 445.045,271.982 444.921,271.964C433.499,268.308 422.908,265.49 411.055,263.714C413.481,272.829 415.846,281.96 418.311,291.066C418.363,291.256 418.462,291.278 418.611,291.134C420.333,289.675 421.203,288.955 422.959,287.532C423.151,287.354 423.269,287.355 423.318,287.528C423.501,288.178 423.593,288.502 423.777,289.144C423.827,289.318 423.757,289.49 423.565,289.667C418.687,294.145 416.292,296.455 411.696,301.19C411.497,301.395 411.377,301.415 411.334,301.248C411.175,300.634 411.094,300.325 410.935,299.702C410.893,299.536 410.97,299.348 411.167,299.142C412.784,297.247 413.601,296.305 415.258,294.436C415.459,294.235 415.537,294.041 415.487,293.852C412.875,283.959 410.389,274.033 407.782,264.138C407.742,263.986 407.63,264.021 407.45,264.24C405.696,266.18 404.843,267.156 403.193,269.11C403.039,269.31 402.941,269.327 402.901,269.167C402.765,268.631 402.698,268.368 402.564,267.848Z" style="fill:rgb(1,1,1);fill-rule:nonzero;"/>
            </g>
            <g transform="matrix(4.16667,0,0,4.16667,-1274.75,-718.174)">
                <path d="M464.78,208.132L464.83,208.027C465.023,207.892 465.145,207.944 465.201,208.177C465.348,208.794 465.421,209.103 465.571,209.724C465.618,209.92 465.526,210.097 465.291,210.26C463.108,212.007 462.835,212.293 460.673,214.105C460.46,214.26 460.382,214.432 460.425,214.627C462.833,225.411 464.51,236.434 467.225,247.029C468.366,251.471 468.399,255.593 467.799,258.982C466.987,263.569 464.137,269.743 460.046,273.413C459.94,273.507 459.795,273.494 459.696,273.381C459.294,273.108 459.091,272.972 458.686,272.701L458.556,272.591C458.432,272.485 458.431,272.329 458.543,272.16C460.217,269.623 461.069,267.499 461.481,265.915C462.217,263.086 462.084,259.878 461.856,255.982C461.775,254.6 461.614,252.961 461.202,251.203C458.721,240.63 455.819,230.457 453.313,219.853C453.268,219.663 453.139,219.651 452.928,219.814C450.695,221.316 450.383,221.602 448.185,223.172C447.959,223.356 447.819,223.359 447.773,223.174C447.626,222.589 447.555,222.296 447.411,221.717C447.365,221.534 447.459,221.35 447.686,221.163C454.409,215.621 457.836,213.002 464.78,208.132Z" style="fill:rgb(1,1,1);fill-rule:nonzero;"/>
            </g>
            <g transform="matrix(4.16667,0,0,4.16667,-1274.75,-718.174)">
                <path d="M479.87,201.6C479.823,201.393 479.684,201.36 479.461,201.493C477.083,202.674 475.899,203.286 473.542,204.552C473.32,204.693 473.181,204.666 473.134,204.465C472.986,203.828 472.913,203.51 472.766,202.876C472.72,202.676 472.811,202.505 473.033,202.362C480.487,197.557 484.361,195.291 492.255,191.189C492.492,191.066 492.631,191.11 492.676,191.325C492.82,192.007 493.118,192.557 493.265,193.241C493.31,193.456 493.217,193.625 492.98,193.745C490.41,195.303 490.423,195.2 487.882,196.84C487.627,196.98 487.53,197.152 487.565,197.366C489.127,206.905 489.276,212.156 491.592,221.794C492.391,225.12 493.214,227.603 494.043,229.235C494.683,230.493 495.593,231.418 496.769,232.016C499.917,233.617 503.52,233.618 508.416,231.833C513.675,229.915 516.831,227.033 518.637,222.432C519.267,220.828 518.887,218.449 518.464,215.712C518.236,214.234 517.825,212.5 517.355,210.477C515.056,200.589 513.447,197.642 510.16,186.487C510.083,186.224 509.923,186.15 509.646,186.276C506.689,187.318 505.966,187.771 503.278,188.815C503.023,188.941 502.872,188.882 502.811,188.645C502.62,187.891 502.523,187.517 502.336,186.763C502.276,186.525 502.37,186.346 502.625,186.218C509.789,182.646 513.428,181.017 520.821,178.062C521.08,177.958 521.237,178.03 521.298,178.283C521.491,179.082 521.589,179.481 521.785,180.278C521.846,180.53 521.746,180.706 521.487,180.807C518.934,182.088 518.497,182.188 515.75,183.662C515.474,183.78 515.372,183.972 515.434,184.242C518.103,195.882 519.144,198.727 521.041,208.684C522.567,216.694 522.448,222.168 520.273,225.91C517.907,229.981 514.01,233.475 508.173,235.588C501.591,237.971 496.713,238.414 492.786,236.907C491.058,236.244 489.755,235.343 488.886,234.177C487.715,232.607 486.757,230.321 486.02,227.316C483.452,216.845 482.158,211.633 479.87,201.6Z" style="fill:rgb(1,1,1);fill-rule:nonzero;"/>
            </g>
            <g transform="matrix(4.16667,0,0,4.16667,-1274.75,-718.174)">
                <path d="M544.413,175.33C544.157,175.392 544.053,175.547 544.098,175.797C545.663,184.525 546.527,188.759 548.284,197.329C548.333,197.574 548.482,197.672 548.731,197.622C550.524,197.262 551.419,197.09 553.207,196.761C562.26,195.093 566.36,190.606 564.971,182.541C564.296,178.624 562.36,175.948 559.12,174.672C556.306,173.563 552.678,173.444 548.287,174.428C546.734,174.776 545.96,174.958 544.413,175.33ZM549.053,170.541C554.151,169.391 558.093,169.108 560.845,169.536C567.808,170.619 571.798,174.987 572.951,181.949C573.72,186.599 572.234,190.603 568.625,194.024C565.433,197.05 561.177,198.979 556.483,199.879C553.533,200.445 551.859,200.696 549.15,201.157C550.733,208.838 551.223,211.46 552.813,219.377C552.859,219.604 553.004,219.711 553.251,219.695C556.147,219.472 557.583,219.381 560.42,219.236C560.689,219.225 560.847,219.35 560.895,219.609C561.047,220.429 561.125,220.841 561.276,221.667C561.324,221.929 561.213,222.074 560.952,222.11C552.783,223.216 548.521,223.904 539.99,225.667C539.741,225.718 539.593,225.621 539.54,225.371C539.371,224.586 539.286,224.193 539.117,223.411C539.058,223.139 539.148,222.978 539.397,222.925C541.949,222.134 543.223,221.755 545.758,221.024C546.006,220.977 546.107,220.828 546.054,220.579C542.984,206.216 539.883,191.867 537.03,177.459C536.983,177.212 536.833,177.124 536.578,177.194C533.864,177.679 532.509,177.941 529.813,178.51C529.559,178.589 529.413,178.507 529.366,178.266C529.216,177.499 529.14,177.115 528.994,176.346C528.948,176.103 529.051,175.944 529.305,175.864C537.106,173.406 541.063,172.345 549.053,170.541Z" style="fill:rgb(1,1,1);fill-rule:nonzero;"/>
            </g>
            <g transform="matrix(4.16667,0,0,4.16667,-1274.75,-718.174)">
                <path d="M619.262,164.213C619.514,164.224 619.652,164.371 619.678,164.657C620.176,170.142 620.506,170.589 621.093,175.764C621.127,176.059 621.026,176.208 620.792,176.188C620.376,176.152 620.108,176.058 619.692,175.968C619.459,175.918 619.313,175.821 619.286,175.607C618.123,172.372 615.961,169.447 614.979,168.283C614.862,168.144 614.782,167.997 614.529,167.989C609.502,167.846 606.906,167.838 601.58,167.959C601.365,167.964 601.274,168.103 601.308,168.377C603.292,183.929 605.92,199.386 608.288,214.882C608.324,215.125 608.499,215.263 608.799,215.292C612.323,215.578 613.921,215.749 616.84,216.122C617.121,216.16 617.27,216.317 617.313,216.592C617.448,217.466 617.518,217.904 617.652,218.787C617.695,219.067 617.585,219.198 617.31,219.187C608.627,218.834 602.975,218.904 594.189,219.267C593.913,219.278 593.76,219.149 593.715,218.875C593.575,218.011 593.504,217.581 593.363,216.724C593.318,216.454 593.426,216.298 593.7,216.259C596.575,215.871 597.958,215.693 600.61,215.363C600.836,215.332 600.933,215.193 600.898,214.951C598.595,199.521 596.055,184.126 594.125,168.643C594.091,168.371 593.968,168.242 593.757,168.253C588.458,168.532 585.173,168.626 579.754,169.172C579.481,169.2 579.368,169.361 579.237,169.536C577.482,171.901 576.224,175.52 575.991,176.382C575.948,176.543 575.854,176.664 575.583,176.671C575.093,176.684 574.653,176.656 574.259,176.653C573.982,176.65 573.843,176.484 573.844,176.196C573.851,171.142 573.863,171.002 573.83,166.593C573.828,166.32 573.913,166.173 574.187,166.138C589.313,164.567 604.059,163.883 619.262,164.213Z" style="fill:rgb(1,1,1);fill-rule:nonzero;"/>
            </g>
        </g>
        <g id="ignite1" serif:id="ignite" transform="matrix(1.00009,0,0,1.1049,3.04909,-323.555)">
            <g>
                <path d="M436.686,1978.01L436.686,2075.3L412.362,2075.3L412.362,2087.46L473.172,2087.46L473.172,2075.3L448.848,2075.3L448.848,1978.01L473.172,1978.01L473.172,1965.85L412.362,1965.85L412.362,1978.01L436.686,1978.01Z"/>
                <path d="M594.791,2014.49L582.629,2014.49L582.629,2002.33L558.306,2002.33L558.306,2014.49L533.982,2014.49L533.982,2063.14L558.306,2063.14L558.306,2075.3L582.629,2075.3L582.629,2063.14L558.306,2063.14L558.306,2050.98L546.144,2050.98L546.144,2026.65L558.306,2026.65L558.306,2014.49L582.629,2014.49L582.629,2026.65L594.791,2026.65L594.791,2050.98L582.629,2050.98L582.629,2063.14L594.791,2063.14L594.791,2111.79L546.144,2111.79L546.144,2087.46L533.982,2087.46L533.982,2111.79L546.144,2111.79L546.144,2123.95L594.791,2123.95L594.791,2111.79L606.953,2111.79L606.953,2014.49L619.115,2014.49L619.115,2002.33L594.791,2002.33L594.791,2014.49Z"/>
                <path d="M692.087,2002.33L667.763,2002.33L667.763,2014.49L679.925,2014.49L679.925,2075.3L667.763,2075.3L667.763,2087.46L704.249,2087.46L704.249,2075.3L692.087,2075.3L692.087,2026.65L704.249,2026.65L704.249,2014.49L728.572,2014.49L728.572,2002.33L704.249,2002.33L704.249,2014.49L692.087,2014.49L692.087,2002.33ZM740.734,2075.3L740.734,2014.49L728.572,2014.49L728.572,2075.3L716.41,2075.3L716.41,2087.46L752.896,2087.46L752.896,2075.3L740.734,2075.3Z"/>
                <path d="M850.192,2002.33L813.706,2002.33L813.706,2014.49L838.03,2014.49L838.03,2075.3L813.706,2075.3L813.706,2087.46L874.515,2087.46L874.515,2075.3L850.192,2075.3L850.192,2002.33ZM850.192,1965.85L838.03,1965.85L838.03,1978.01L850.192,1978.01L850.192,1965.85Z"/>
                <path d="M1008.3,2087.46L1008.3,2075.3L1020.46,2075.3L1020.46,2063.14L1008.3,2063.14L1008.3,2075.3L971.811,2075.3L971.811,2087.46L1008.3,2087.46ZM971.811,2002.33L971.811,1978.01L959.649,1978.01L959.649,2002.33L935.325,2002.33L935.325,2014.49L959.649,2014.49L959.649,2075.3L971.811,2075.3L971.811,2014.49L1008.3,2014.49L1008.3,2002.33L971.811,2002.33Z"/>
                <g transform="matrix(1,0,0,1,267.562,-2.27374e-13)">
                    <path d="M850.192,2002.33L813.706,2002.33L813.706,2014.49L838.03,2014.49L838.03,2075.3L813.706,2075.3L813.706,2087.46L874.515,2087.46L874.515,2075.3L850.192,2075.3L850.192,2002.33ZM850.192,1965.85L838.03,1965.85L838.03,1978.01L850.192,1978.01L850.192,1965.85Z"/>
                </g>
                <g transform="matrix(1,0,0,1,535.124,-1.13687e-12)">
                    <path d="M692.087,2002.33L667.763,2002.33L667.763,2014.49L679.925,2014.49L679.925,2075.3L667.763,2075.3L667.763,2087.46L704.249,2087.46L704.249,2075.3L692.087,2075.3L692.087,2026.65L704.249,2026.65L704.249,2014.49L728.572,2014.49L728.572,2002.33L704.249,2002.33L704.249,2014.49L692.087,2014.49L692.087,2002.33ZM740.734,2075.3L740.734,2014.49L728.572,2014.49L728.572,2075.3L716.41,2075.3L716.41,2087.46L752.896,2087.46L752.896,2075.3L740.734,2075.3Z"/>
                </g>
                <g transform="matrix(1,0,0,1,802.687,0)">
                    <path d="M594.791,2014.49L582.629,2014.49L582.629,2002.33L558.306,2002.33L558.306,2014.49L533.982,2014.49L533.982,2063.14L558.306,2063.14L558.306,2075.3L582.629,2075.3L582.629,2063.14L558.306,2063.14L558.306,2050.98L546.144,2050.98L546.144,2026.65L558.306,2026.65L558.306,2014.49L582.629,2014.49L582.629,2026.65L594.791,2026.65L594.791,2050.98L582.629,2050.98L582.629,2063.14L594.791,2063.14L594.791,2111.79L546.144,2111.79L546.144,2087.46L533.982,2087.46L533.982,2111.79L546.144,2111.79L546.144,2123.95L594.791,2123.95L594.791,2111.79L606.953,2111.79L606.953,2014.49L619.115,2014.49L619.115,2002.33L594.791,2002.33L594.791,2014.49Z"/>
                </g>
                <g transform="matrix(1,0,0,1,-3.04881,292.836)">
                    <path d="M1704.58,1673.01L1595.12,1673.01L1595.12,1697.33L1607.28,1697.33L1607.28,1685.17L1643.77,1685.17L1643.77,1782.47L1619.44,1782.47L1619.44,1794.63L1680.25,1794.63L1680.25,1782.47L1655.93,1782.47L1655.93,1685.17L1692.41,1685.17L1692.41,1697.33L1704.58,1697.33L1704.58,1673.01Z"/>
                </g>
                <g transform="matrix(1,0,0,1,532.076,292.836)">
                    <path d="M1704.58,1673.01L1595.12,1673.01L1595.12,1697.33L1607.28,1697.33L1607.28,1685.17L1643.77,1685.17L1643.77,1782.47L1619.44,1782.47L1619.44,1794.63L1680.25,1794.63L1680.25,1782.47L1655.93,1782.47L1655.93,1685.17L1692.41,1685.17L1692.41,1697.33L1704.58,1697.33L1704.58,1673.01Z"/>
                </g>
                <path d="M1810.98,2075.3L1810.98,2014.49L1798.82,2014.49L1798.82,2075.3L1786.66,2075.3L1786.66,2087.46L1823.14,2087.46L1823.14,2075.3L1810.98,2075.3ZM1762.34,2014.49L1762.34,1965.85L1738.01,1965.85L1738.01,1978.01L1750.17,1978.01L1750.17,2075.3L1738.01,2075.3L1738.01,2087.46L1774.5,2087.46L1774.5,2075.3L1762.34,2075.3L1762.34,2026.65L1774.5,2026.65L1774.5,2014.49L1762.34,2014.49ZM1798.82,2002.33L1774.5,2002.33L1774.5,2014.49L1798.82,2014.49L1798.82,2002.33Z"/>
                <path d="M1883.95,2050.98L1956.93,2050.98L1956.93,2014.49L1932.6,2014.49L1932.6,2026.65L1944.76,2026.65L1944.76,2038.82L1883.95,2038.82L1883.95,2026.65L1896.12,2026.65L1896.12,2014.49L1871.79,2014.49L1871.79,2075.3L1896.12,2075.3L1896.12,2087.46L1932.6,2087.46L1932.6,2075.3L1956.93,2075.3L1956.93,2063.14L1932.6,2063.14L1932.6,2075.3L1896.12,2075.3L1896.12,2063.14L1883.95,2063.14L1883.95,2050.98ZM1932.6,2002.33L1896.12,2002.33L1896.12,2014.49L1932.6,2014.49L1932.6,2002.33Z"/>
                <g transform="matrix(1,0,0,1,535.124,-1.36424e-12)">
                    <path d="M1810.98,2075.3L1810.98,2014.49L1798.82,2014.49L1798.82,2075.3L1786.66,2075.3L1786.66,2087.46L1823.14,2087.46L1823.14,2075.3L1810.98,2075.3ZM1762.34,2014.49L1762.34,1965.85L1738.01,1965.85L1738.01,1978.01L1750.17,1978.01L1750.17,2075.3L1738.01,2075.3L1738.01,2087.46L1774.5,2087.46L1774.5,2075.3L1762.34,2075.3L1762.34,2026.65L1774.5,2026.65L1774.5,2014.49L1762.34,2014.49ZM1798.82,2002.33L1774.5,2002.33L1774.5,2014.49L1798.82,2014.49L1798.82,2002.33Z"/>
                </g>
                <path d="M2467.73,2075.3L2431.24,2075.3L2431.24,2087.46L2467.73,2087.46L2467.73,2075.3ZM2492.05,2075.3L2492.05,2014.49L2467.73,2014.49L2467.73,2026.65L2479.89,2026.65L2479.89,2063.14L2467.73,2063.14L2467.73,2075.3L2492.05,2075.3ZM2419.08,2026.65L2431.24,2026.65L2431.24,2014.49L2467.73,2014.49L2467.73,2002.33L2431.24,2002.33L2431.24,2014.49L2406.92,2014.49L2406.92,2075.3L2431.24,2075.3L2431.24,2063.14L2419.08,2063.14L2419.08,2026.65Z"/>
                <path d="M2613.67,2002.33L2589.35,2002.33L2589.35,2014.49L2601.51,2014.49L2601.51,2063.14L2589.35,2063.14L2589.35,2075.3L2601.51,2075.3L2601.51,2087.46L2625.83,2087.46L2625.83,2075.3L2613.67,2075.3L2613.67,2002.33ZM2565.02,2075.3L2565.02,2002.33L2540.7,2002.33L2540.7,2014.49L2552.86,2014.49L2552.86,2075.3L2565.02,2075.3L2565.02,2087.46L2589.35,2087.46L2589.35,2075.3L2565.02,2075.3Z"/>
                <g transform="matrix(1,0,0,1,2140.5,0)">
                    <path d="M594.791,2014.49L582.629,2014.49L582.629,2002.33L558.306,2002.33L558.306,2014.49L533.982,2014.49L533.982,2063.14L558.306,2063.14L558.306,2075.3L582.629,2075.3L582.629,2063.14L558.306,2063.14L558.306,2050.98L546.144,2050.98L546.144,2026.65L558.306,2026.65L558.306,2014.49L582.629,2014.49L582.629,2026.65L594.791,2026.65L594.791,2050.98L582.629,2050.98L582.629,2063.14L594.791,2063.14L594.791,2111.79L546.144,2111.79L546.144,2087.46L533.982,2087.46L533.982,2111.79L546.144,2111.79L546.144,2123.95L594.791,2123.95L594.791,2111.79L606.953,2111.79L606.953,2014.49L619.115,2014.49L619.115,2002.33L594.791,2002.33L594.791,2014.49Z"/>
                </g>
                <g transform="matrix(1,0,0,1,1070.25,-2.50111e-12)">
                    <path d="M1810.98,2075.3L1810.98,2014.49L1798.82,2014.49L1798.82,2075.3L1786.66,2075.3L1786.66,2087.46L1823.14,2087.46L1823.14,2075.3L1810.98,2075.3ZM1762.34,2014.49L1762.34,1965.85L1738.01,1965.85L1738.01,1978.01L1750.17,1978.01L1750.17,2075.3L1738.01,2075.3L1738.01,2087.46L1774.5,2087.46L1774.5,2075.3L1762.34,2075.3L1762.34,2026.65L1774.5,2026.65L1774.5,2014.49L1762.34,2014.49ZM1798.82,2002.33L1774.5,2002.33L1774.5,2014.49L1798.82,2014.49L1798.82,2002.33Z"/>
                </g>
                <g transform="matrix(1,0,0,1,2006.72,-1.81899e-12)">
                    <path d="M1008.3,2087.46L1008.3,2075.3L1020.46,2075.3L1020.46,2063.14L1008.3,2063.14L1008.3,2075.3L971.811,2075.3L971.811,2087.46L1008.3,2087.46ZM971.811,2002.33L971.811,1978.01L959.649,1978.01L959.649,2002.33L935.325,2002.33L935.325,2014.49L959.649,2014.49L959.649,2075.3L971.811,2075.3L971.811,2014.49L1008.3,2014.49L1008.3,2002.33L971.811,2002.33Z"/>
                </g>
            </g>
        </g>
    </g>
</svg>
